:SAMPLES-PER-SECOND 24
:FULLY-SPECIFIED
:DEGREES
412
root  -0.854249 38.9586 9.57067 7.42731 -46.5886 -2.12677
RightUpLeg  -9.29797 11.0328 -6.68529
RightLeg  22.7788 -1.75312 -0.945226
RightFoot  -18.4318 0.217823 5.4996
RightToes  -2.08645e-008 3.77894e-005 6.81332e-007
Spine  6.43486 -0.315134 -1.13465
Spine1  5.20175 -1.21972 3.45221
HEad  -34.5338 34.7116 -20.5634
LeftShoulder1  7.8389 -13.5352 -39.8121
LeftArm  8.69594 19.2077 -32.1388
LeftForeArm  169.059 -66.7962 -157.063
LeftHand  -0.328323 -3.46008 4.55858
RightShoulder  4.08099 6.71079 34.0639
RightArm  12.1634 -25.498 31.707
RightForeArm  141.649 77.0306 132.446
RightHand  -0.559186 8.49032 -5.06337
LeftUpLeg  -21.6931 7.80433 15.0122
LeftLeg  27.6912 1.43548 1.17393
LeftFoot  1.68063 2.17379 -18.979
LeftToes  1.24767e-006 1.47042e-008 1.32732e-009
413
root  -0.63507 39.9097 10.3878 7.25739 -46.3444 -0.488037
RightUpLeg  -7.57461 9.57317 -8.84643
RightLeg  17.5183 -0.746109 -1.00891
RightFoot  -11.9465 -0.0446196 7.25778
RightToes  -2.08645e-008 3.77894e-005 6.81332e-007
Spine  4.83227 0.646016 0.679006
Spine1  3.76286 0.707677 -0.36675
HEad  -32.7993 32.5843 -19.1246
LeftShoulder1  7.24111 -13.0031 -37.7691
LeftArm  9.70928 30.8198 -29.6993
LeftForeArm  166.828 -62.9281 -160.414
LeftHand  -0.231972 -3.65597 3.23676
RightShoulder  4.07429 6.72642 33.9382
RightArm  13.151 -27.9495 32.2109
RightForeArm  148.634 75.2641 139.688
RightHand  -0.466446 8.36714 -4.30612
LeftUpLeg  -21.6446 14.4588 13.0632
LeftLeg  25.5046 -8.26013 -3.92516
LeftFoot  8.16734 3.45485 -20.1731
LeftToes  1.24767e-006 1.47042e-008 1.32732e-009
414
root  -0.240806 40.5158 11.2691 7.84937 -45.9657 -0.792664
RightUpLeg  -6.51613 4.26006 -9.73396
RightLeg  14.7183 4.72718 -0.886788
RightFoot  -6.68323 -0.443655 9.76475
RightToes  -2.08645e-008 3.77894e-005 6.81332e-007
Spine  4.29126 1.72368 3.89475
Spine1  2.36244 2.56452 -3.86212
HEad  -31.7175 30.011 -18.7628
LeftShoulder1  6.63034 -12.4634 -35.4955
LeftArm  9.37535 38.9419 -27.2963
LeftForeArm  166.042 -62.8353 -160.394
LeftHand  -0.0728681 -4.14745 1.16256
RightShoulder  3.99598 6.67784 33.3618
RightArm  15.6554 -28.2995 30.5687
RightForeArm  152.909 73.3222 145.179
RightHand  -0.325216 8.69768 -3.05973
LeftUpLeg  -20.5029 14.952 13.4256
LeftLeg  22.6983 -8.92497 -3.75375
LeftFoot  10.8005 3.91209 -20.1538
LeftToes  1.24767e-006 1.47042e-008 1.32732e-009
415
root  0.188058 40.6864 12.0616 7.57562 -44.4776 -0.943115
RightUpLeg  -4.98652 1.8701 -10.5831
RightLeg  13.507 5.86153 -1.30762
RightFoot  -4.32513 -0.712591 11.1313
RightToes  -2.08645e-008 3.77894e-005 6.81332e-007
Spine  4.15224 2.30725 4.45192
Spine1  2.14196 3.29435 -4.59456
HEad  -31.9055 27.7967 -18.7952
LeftShoulder1  5.97586 -11.7985 -33.0511
LeftArm  7.79277 43.528 -26.0798
LeftForeArm  164.907 -64.7507 -158.632
LeftHand  -0.0476032 -3.99342 0.862319
RightShoulder  3.79848 6.49877 32.0882
RightArm  18.3143 -25.9028 28.8452
RightForeArm  155.177 72.4453 147.309
RightHand  -0.23773 9.38822 -2.25457
LeftUpLeg  -19.2734 11.5604 14.3778
LeftLeg  19.7046 -0.0996537 0.283717
LeftFoot  12.614 3.16641 -15.2659
LeftToes  1.24767e-006 1.47042e-008 1.32732e-009
416
root  0.62626 40.3148 12.7891 6.86273 -41.9225 -0.738464
RightUpLeg  -3.2287 2.40192 -11.4645
RightLeg  13.9258 2.7028 -2.08002
RightFoot  -6.13469 -0.583933 11.8932
RightToes  -2.08645e-008 3.77894e-005 6.81332e-007
Spine  3.84239 2.48744 3.69284
Spine1  2.61525 3.37941 -4.10872
HEad  -32.1478 25.5052 -17.703
LeftShoulder1  5.42112 -11.2353 -30.7767
LeftArm  5.5752 44.9429 -25.0645
LeftForeArm  164.446 -67.235 -156.096
LeftHand  -0.123413 -3.19301 1.91181
RightShoulder  3.61883 6.31677 30.9533
RightArm  19.2536 -22.7503 27.7478
RightForeArm  154.807 72.9225 146.318
RightHand  -0.142294 9.32496 -1.51901
LeftUpLeg  -18.8382 7.37415 15.1834
LeftLeg  18.2699 8.5758 3.48403
LeftFoot  14.7279 2.40274 -10.6673
LeftToes  1.24767e-006 1.47042e-008 1.32732e-009
417
root  1.17894 39.5197 13.5894 6.66528 -39.6391 -1.29657
RightUpLeg  -1.34253 3.29909 -12.3022
RightLeg  14.5724 0.224158 -2.3245
RightFoot  -10.2246 -0.199388 13.4864
RightToes  -2.08645e-008 3.77894e-005 6.81332e-007
Spine  3.85461 2.51579 4.692
Spine1  3.07108 3.64433 -5.1269
HEad  -32.5306 23.2998 -16.8966
LeftShoulder1  5.34021 -11.1416 -30.4588
LeftArm  2.54071 44.2223 -22.6975
LeftForeArm  164.587 -68.5732 -154.565
LeftHand  -0.210973 -2.56783 3.28944
RightShoulder  3.52442 6.20233 30.4079
RightArm  18.3218 -19.9908 27.1999
RightForeArm  151.688 74.1684 143.107
RightHand  -0.0439945 9.28332 -0.740503
LeftUpLeg  -18.1389 4.55584 15.8406
LeftLeg  18.6934 10.9007 4.40579
LeftFoot  10.3972 2.54943 -13.6102
LeftToes  1.24767e-006 1.47042e-008 1.32732e-009
418
root  1.89323 38.7046 14.5613 6.34357 -37.5919 -1.83014
RightUpLeg  1.13856 2.2894 -13.6996
RightLeg  14.1477 0.158844 -2.46329
RightFoot  -13.3841 0.175693 14.8988
RightToes  -2.08645e-008 3.77894e-005 6.81332e-007
Spine  3.55717 2.41912 6.04204
Spine1  4.50496 3.83365 -6.14935
HEad  -33.7765 21.5245 -17.0198
LeftShoulder1  5.80253 -11.4481 -32.8123
LeftArm  -1.88595 40.5058 -20.8601
LeftForeArm  161.002 -70.5022 -151.451
LeftHand  -0.360248 -1.94529 5.88939
RightShoulder  3.57029 6.2143 30.8415
RightArm  15.7597 -17.4137 27.2406
RightForeArm  143.664 76.7036 134.095
RightHand  -0.208012 8.97399 -2.06881
LeftUpLeg  -17.6175 3.0254 15.0242
LeftLeg  20.7458 9.62057 4.32844
LeftFoot  0.317404 1.76596 -17.208
LeftToes  1.24767e-006 1.47042e-008 1.32732e-009
419
root  2.68956 38.268 15.6068 5.40936 -34.2925 -1.13831
RightUpLeg  3.98409 -0.745396 -16.0063
RightLeg  13.2897 0.260088 -3.02736
RightFoot  -13.9199 0.286911 16.9954
RightToes  -2.08645e-008 3.77894e-005 6.81332e-007
Spine  2.49994 2.34578 5.19578
Spine1  6.55245 3.60374 -5.12217
HEad  -34.7825 19.3185 -16.1689
LeftShoulder1  6.66687 -12.2406 -36.2925
LeftArm  -7.00599 33.4679 -22.0825
LeftForeArm  150.341 -74.9953 -140.636
LeftHand  -0.518979 -1.08852 9.44307
RightShoulder  3.8033 6.41577 32.4552
RightArm  11.2835 -17.5689 27.8506
RightForeArm  126.316 79.373 115.726
RightHand  -0.549198 8.42529 -4.98622
LeftUpLeg  -18.9921 0.35174 12.2718
LeftLeg  24.2894 9.00874 4.75375
LeftFoot  -5.98043 0.726513 -14.7572
LeftToes  1.24767e-006 1.47042e-008 1.32732e-009
420
root  3.49701 38.3115 16.5864 4.76208 -30.8835 -0.417419
RightUpLeg  4.99718 -0.30486 -17.7766
RightLeg  15.0205 -3.94882 -3.45413
RightFoot  -10.947 -0.163815 19.9389
RightToes  -2.08645e-008 3.77894e-005 6.81332e-007
Spine  2.07385 2.6001 4.29411
Spine1  6.97589 3.70678 -4.23638
HEad  -34.2899 16.724 -13.9978
LeftShoulder1  7.45819 -13.0933 -38.8016
LeftArm  -11.2881 26.1476 -26.4772
LeftForeArm  133.515 -78.6118 -123.068
LeftHand  -0.590549 -0.302538 12.1394
RightShoulder  4.09419 6.68754 34.2819
RightArm  6.33341 -21.4175 29.8487
RightForeArm  110.334 80.2099 100.51
RightHand  -0.558625 7.71944 -5.29187
LeftUpLeg  -20.2758 -2.67292 9.49933
LeftLeg  26.505 9.0754 5.21945
LeftFoot  -6.63277 0.51255 -11.5616
LeftToes  1.24767e-006 1.47042e-008 1.32732e-009
421
root  4.23938 38.7274 17.45 5.14404 -30.5914 -0.892334
RightUpLeg  1.80874 4.06324 -17.9539
RightLeg  20.8172 -10.5569 -4.83454
RightFoot  -4.34027 -1.11093 17.5959
RightToes  -2.08645e-008 3.77894e-005 6.81332e-007
Spine  2.535 3.28626 5.15874
Spine1  5.6541 4.62668 -5.31254
HEad  -32.9802 15.8773 -12.3212
LeftShoulder1  7.54018 -13.2108 -38.9661
LeftArm  -14.256 22.4655 -33.2904
LeftForeArm  131.47 -78.6885 -121.99
LeftHand  -0.55838 0.573553 13.4941
RightShoulder  4.25039 6.85459 35.1319
RightArm  4.93104 -24.4693 33.1152
RightForeArm  107.927 80.2407 98.4663
RightHand  -0.518698 7.50292 -5.01973
LeftUpLeg  -18.6535 -2.1426 8.04313
LeftLeg  24.0842 8.53475 4.48681
LeftFoot  -6.40826 0.486479 -10.3757
LeftToes  1.24767e-006 1.47042e-008 1.32732e-009
422
root  4.80584 39.2231 18.1656 6.45587 -32.6507 -1.91614
RightUpLeg  -4.27572 6.0224 -17.1733
RightLeg  27.9791 -12.6996 -7.4392
RightFoot  1.49892 -1.0422 9.33377
RightToes  -2.08645e-008 3.77894e-005 6.81332e-007
Spine  2.45845 3.78208 4.87627
Spine1  4.27363 5.05925 -5.55845
HEad  -32.3978 17.5763 -11.8923
LeftShoulder1  7.10782 -12.7335 -37.6827
LeftArm  -15.5362 21.5698 -39.3471
LeftForeArm  142.526 -76.4974 -134.588
LeftHand  -0.523367 1.11753 14.2014
RightShoulder  4.26844 6.91795 35.0559
RightArm  8.48014 -23.7906 35.6651
RightForeArm  113.633 80.2789 101.48
RightHand  -0.420696 8.25103 -3.94952
LeftUpLeg  -15.9553 0.136179 7.38086
LeftLeg  19.208 8.72726 3.69094
LeftFoot  -6.06775 0.450569 -8.98353
LeftToes  1.24767e-006 1.47042e-008 1.32732e-009
423
root  5.22735 39.6074 18.7155 7.85016 -33.5842 -3.02032
RightUpLeg  -9.49903 5.34563 -15.4192
RightLeg  33.3069 -11.604 -8.32249
RightFoot  2.08792 -0.428798 3.72125
RightToes  -2.08645e-008 3.77894e-005 6.81332e-007
Spine  2.20106 3.35405 2.68642
Spine1  3.17024 4.06788 -3.37124
HEad  -32.9136 19.7085 -12.0993
LeftShoulder1  6.75068 -12.347 -36.5367
LeftArm  -13.9505 20.2984 -40.9534
LeftForeArm  149.75 -74.3784 -142.266
LeftHand  -0.531662 0.822311 13.5272
RightShoulder  4.24134 6.95329 34.6632
RightArm  13.8299 -21.1624 37.0152
RightForeArm  121.027 80.3359 104.886
RightHand  -0.238479 9.32623 -2.27779
LeftUpLeg  -14.3213 -0.368291 7.13575
LeftLeg  15.5009 10.4211 3.86029
LeftFoot  -4.77093 0.487429 -7.97757
LeftToes  1.24767e-006 1.47042e-008 1.32732e-009
424
root  5.58361 39.8388 19.127 8.46527 -32.9035 -4.28516
RightUpLeg  -12.4818 2.93574 -12.5371
RightLeg  35.8154 -8.83411 -7.04115
RightFoot  -0.64587 -0.349741 3.74334
RightToes  -2.08645e-008 3.77894e-005 6.81332e-007
Spine  3.20799 2.48773 0.525367
Spine1  2.06963 2.60611 -0.544266
HEad  -33.7343 20.4717 -12.3297
LeftShoulder1  6.56499 -12.2492 -35.6433
LeftArm  -8.9451 16.9258 -38.1465
LeftForeArm  150.787 -74.2224 -142.831
LeftHand  -0.533641 0.0404176 11.6583
RightShoulder  4.19353 6.96421 34.1689
RightArm  18.146 -18.9058 37.694
RightForeArm  125.765 80.3468 107.151
RightHand  -0.168249 10.1019 -1.65592
LeftUpLeg  -12.9771 -1.44967 7.20219
LeftLeg  13.2492 10.8951 4.1737
LeftFoot  -4.21167 0.509092 -7.76113
LeftToes  1.24767e-006 1.47042e-008 1.32732e-009
425
root  5.84396 39.9148 19.4486 8.48492 -32.0334 -5.19995
RightUpLeg  -14.4508 1.45355 -9.14992
RightLeg  35.9569 -7.87863 -6.35841
RightFoot  -3.4011 -0.327949 4.39436
RightToes  -2.08645e-008 3.77894e-005 6.81332e-007
Spine  4.4616 2.05839 -1.61809
Spine1  1.69118 1.70887 1.71338
HEad  -34.349 20.0234 -12.1464
LeftShoulder1  6.48262 -12.2618 -35.0989
LeftArm  -1.55171 10.5383 -32.9193
LeftForeArm  144.483 -76.2537 -135.831
LeftHand  -0.549144 -0.80854 10.4128
RightShoulder  4.17193 6.96865 33.9472
RightArm  20.1348 -17.5892 37.5284
RightForeArm  123.922 80.4448 105.211
RightHand  -0.125553 10.0247 -1.34701
LeftUpLeg  -11.945 -0.845083 7.24647
LeftLeg  12.2751 9.52929 3.93207
LeftFoot  -4.84536 0.435017 -7.14444
LeftToes  1.24767e-006 1.47042e-008 1.32732e-009
